<svg width="1495" height="533" viewBox="0 0 1495 533" fill="none" xmlns="http://www.w3.org/2000/svg">
<path d="M225.99 232.027C216.174 226.792 205.049 224.221 192.709 224.221C181.21 224.221 170.787 226.792 161.391 231.933C155.268 235.299 149.986 239.412 145.452 244.32V175.094C145.452 171.542 144.424 168.784 142.414 166.727C140.357 164.717 137.693 163.689 134.327 163.689C130.775 163.689 128.017 164.717 125.96 166.727C123.904 168.784 122.922 171.542 122.922 175.094V359.775C122.922 363.141 123.95 365.852 125.96 367.862C127.97 369.918 130.775 370.9 134.327 370.9C137.693 370.9 140.404 369.872 142.414 367.862C144.424 365.852 145.452 363.141 145.452 359.775V282.556C145.452 275.311 147.415 268.907 151.295 263.298C155.175 257.735 160.457 253.295 167.094 250.023C173.732 246.751 181.21 245.115 189.531 245.115C198.365 245.115 206.265 246.844 213.136 250.303C220.054 253.762 225.476 258.904 229.449 265.682C233.422 272.506 235.432 281.294 235.432 292.091V359.728C235.432 362.907 236.507 365.571 238.611 367.675C240.714 369.778 243.472 370.853 246.837 370.853C250.016 370.853 252.68 369.778 254.784 367.675C256.887 365.571 257.962 362.907 257.962 359.728V292.091C257.962 277.414 255.064 265.027 249.361 254.931C243.612 244.834 235.853 237.215 225.99 231.98V232.027Z" fill="#182D7A"/>
<path d="M451.945 225.763C448.58 225.763 445.869 226.792 443.859 228.802C441.802 230.858 440.82 233.523 440.82 236.888V314.107C440.82 321.353 438.857 327.756 434.977 333.365C431.098 338.928 425.769 343.368 419.038 346.64C412.307 349.912 404.782 351.548 396.508 351.548C388.235 351.548 380.055 349.819 373.137 346.36C366.219 342.901 360.75 337.759 356.683 330.982C352.617 324.157 350.56 315.369 350.56 304.572V236.935C350.56 233.756 349.485 231.092 347.381 228.989C345.278 226.885 342.614 225.81 339.435 225.81C336.257 225.81 333.592 226.885 331.489 228.989C329.385 231.092 328.31 233.756 328.31 236.935V304.572C328.31 319.249 331.162 331.636 336.817 341.732C342.473 351.829 350.233 359.448 360.049 364.683C369.865 369.918 381.036 372.489 393.61 372.489C405.109 372.489 415.532 369.918 424.928 364.777C431.098 361.411 436.38 357.251 440.867 352.343V359.495C440.867 363.047 441.895 365.805 443.905 367.862C445.915 369.918 448.626 370.9 451.992 370.9C455.357 370.9 458.115 369.872 460.219 367.862C462.322 365.852 463.397 363.047 463.397 359.495V236.935C463.397 233.569 462.322 230.858 460.219 228.848C458.115 226.839 455.357 225.81 451.992 225.81L451.945 225.763Z" fill="#182D7A"/>
<path d="M719.08 231.326C711.134 226.558 702.019 224.174 691.735 224.174C680.611 224.174 670.654 226.652 661.867 231.606C654.668 235.673 648.779 241.142 644.151 247.873C639.944 240.861 634.522 235.346 627.791 231.326C619.845 226.558 610.73 224.174 600.447 224.174C590.163 224.174 580.721 226.652 572.588 231.606C568.381 234.177 564.688 237.215 561.463 240.768V237.169C561.463 233.803 560.435 231.045 558.425 228.942C556.368 226.839 553.704 225.763 550.338 225.763C546.786 225.763 544.028 226.839 541.971 228.942C539.915 231.045 538.933 233.803 538.933 237.169V359.728C538.933 363.094 539.961 365.805 541.971 367.815C543.981 369.872 546.786 370.853 550.338 370.853C553.704 370.853 556.415 369.825 558.425 367.815C560.435 365.805 561.463 363.094 561.463 359.728V282.509C561.463 271.384 564.829 262.363 571.56 255.445C578.291 248.527 586.845 245.115 597.315 245.115C607.037 245.115 615.03 248.48 621.341 255.211C627.604 261.942 630.736 271.384 630.736 283.584V359.728C630.736 363.094 631.811 365.805 633.915 367.815C636.018 369.872 638.682 370.853 641.861 370.853C645.226 370.853 647.937 369.825 649.947 367.815C651.957 365.805 652.986 363.094 652.986 359.728V283.584C652.986 272.086 656.304 262.784 662.942 255.726C669.579 248.667 678.087 245.115 688.557 245.115C699.027 245.115 706.506 248.48 712.723 255.211C718.893 261.942 722.025 271.384 722.025 283.584V359.728C722.025 363.094 723.1 365.805 725.203 367.815C727.307 369.872 730.065 370.853 733.43 370.853C736.609 370.853 739.273 369.825 741.376 367.815C743.48 365.805 744.555 363.094 744.555 359.728V283.584C744.555 271.384 742.311 260.821 737.777 251.893C733.29 242.965 727.026 236.094 719.08 231.326Z" fill="#182D7A"/>
<path d="M920.589 234.13C909.511 227.68 897.124 224.455 883.288 224.455C869.452 224.455 856.738 227.68 845.614 234.13C834.489 240.581 825.654 249.369 819.204 260.54C812.753 271.665 809.528 284.332 809.528 298.495C809.528 312.658 812.613 325.045 818.83 336.17C825 347.295 833.414 356.129 844.024 362.58C854.635 369.03 866.648 372.255 880.11 372.255C893.572 372.255 904.556 369.217 914.746 363.094C922.365 358.513 928.769 352.764 934.004 345.799V359.775C934.004 363.141 935.126 365.852 937.323 367.862C939.52 369.918 942.231 370.9 945.41 370.9C948.775 370.9 951.533 369.872 953.636 367.862C955.74 365.852 956.815 363.141 956.815 359.775V298.495C956.628 284.332 953.309 271.712 946.859 260.54C940.408 249.415 931.667 240.581 920.589 234.13ZM928.021 325.793C923.534 333.926 917.411 340.33 909.698 345.051C901.985 349.725 893.198 352.063 883.288 352.063C873.379 352.063 864.778 349.725 856.879 345.051C849.026 340.377 842.762 333.973 838.181 325.793C833.601 317.66 831.263 308.545 831.263 298.448C831.263 288.352 833.554 279.05 838.181 271.01C842.762 262.971 849.026 256.567 856.879 251.752C864.731 246.985 873.566 244.601 883.288 244.601C893.011 244.601 901.985 246.985 909.698 251.752C917.411 256.52 923.487 262.924 928.021 271.01C932.555 279.05 934.799 288.212 934.799 298.448C934.799 308.685 932.555 317.66 928.021 325.793Z" fill="#182D7A"/>
<path d="M1127.57 232.027C1117.75 226.792 1106.63 224.221 1094.29 224.221C1082.79 224.221 1072.36 226.792 1062.97 231.934C1056.84 235.299 1051.56 239.412 1047.03 244.32V237.262C1047.03 233.71 1046 230.952 1043.99 228.895C1041.93 226.885 1039.27 225.857 1035.9 225.857C1032.35 225.857 1029.59 226.885 1027.54 228.895C1025.48 230.952 1024.5 233.71 1024.5 237.262V359.822C1024.5 363.187 1025.53 365.898 1027.54 367.908C1029.55 369.965 1032.35 370.947 1035.9 370.947C1039.27 370.947 1041.98 369.918 1043.99 367.908C1046 365.898 1047.03 363.187 1047.03 359.822V282.603C1047.03 275.358 1048.99 268.954 1052.87 263.345C1056.75 257.782 1062.03 253.342 1068.67 250.07C1075.31 246.798 1082.79 245.162 1091.11 245.162C1099.94 245.162 1107.84 246.891 1114.71 250.35C1121.63 253.809 1127.05 258.951 1131.03 265.729C1135 272.553 1137.01 281.341 1137.01 292.138V359.775C1137.01 362.954 1138.08 365.618 1140.19 367.721C1142.29 369.825 1145.05 370.9 1148.41 370.9C1151.59 370.9 1154.26 369.825 1156.36 367.721C1158.46 365.618 1159.54 362.954 1159.54 359.775V292.138C1159.54 277.461 1156.64 265.074 1150.94 254.978C1145.19 244.881 1137.43 237.262 1127.57 232.027Z" fill="#182D7A"/>
<path d="M1368.85 166.727C1366.75 164.717 1363.99 163.689 1360.63 163.689C1357.45 163.689 1354.74 164.717 1352.54 166.727C1350.34 168.784 1349.22 171.542 1349.22 175.094V250.958C1343.38 243.012 1335.81 236.608 1326.55 231.7C1317.25 226.838 1306.87 224.408 1295.37 224.408C1281.91 224.408 1269.9 227.633 1259.29 234.084C1248.68 240.534 1240.26 249.322 1234.09 260.493C1227.88 271.618 1224.79 284.192 1224.79 298.168C1224.79 312.144 1228.02 324.952 1234.47 336.123C1240.92 347.248 1249.71 356.082 1260.88 362.533C1272 368.983 1284.58 372.209 1298.55 372.209C1312.53 372.209 1324.73 368.983 1335.71 362.533C1346.7 356.082 1355.39 347.342 1361.84 336.263C1368.29 325.232 1371.7 312.799 1372.08 298.963V175.094C1372.08 171.542 1371 168.784 1368.9 166.727H1368.85ZM1343.28 325.653C1338.8 333.693 1332.67 340.096 1324.96 344.911C1317.25 349.679 1308.46 352.063 1298.55 352.063C1288.64 352.063 1280.04 349.679 1272.14 344.911C1264.29 340.143 1258.03 333.739 1253.44 325.653C1248.86 317.613 1246.53 308.451 1246.53 298.215C1246.53 287.978 1248.82 279.003 1253.44 270.87C1258.03 262.737 1264.29 256.333 1272.14 251.612C1279.99 246.938 1288.83 244.601 1298.55 244.601C1308.27 244.601 1317.25 246.938 1324.96 251.612C1332.67 256.286 1338.75 262.737 1343.28 270.87C1347.82 279.003 1350.06 288.118 1350.06 298.215C1350.06 308.311 1347.82 317.613 1343.28 325.653Z" fill="#182D7A"/>
</svg>
